<?xml version="1.0" encoding="UTF-8" standalone="no"?>
<svg
   width="64"
   height="64"
   viewBox="0 0 20 20"
   version="1.1"
   id="svg14"
   sodipodi:docname="cvex.svg"
   inkscape:version="1.2.2 (732a01da63, 2022-12-09)"
   xmlns:inkscape="http://www.inkscape.org/namespaces/inkscape"
   xmlns:sodipodi="http://sodipodi.sourceforge.net/DTD/sodipodi-0.dtd"
   xmlns="http://www.w3.org/2000/svg"
   xmlns:svg="http://www.w3.org/2000/svg">
  <defs
     id="defs18" />
  <sodipodi:namedview
     id="namedview16"
     pagecolor="#ffffff"
     bordercolor="#000000"
     borderopacity="0.25"
     inkscape:showpageshadow="2"
     inkscape:pageopacity="0.0"
     inkscape:pagecheckerboard="0"
     inkscape:deskcolor="#d1d1d1"
     showgrid="false"
     inkscape:zoom="13.078125"
     inkscape:cx="29.362007"
     inkscape:cy="26.074074"
     inkscape:window-width="1920"
     inkscape:window-height="1017"
     inkscape:window-x="1912"
     inkscape:window-y="-8"
     inkscape:window-maximized="1"
     inkscape:current-layer="g12" />
  <g
     fill="none"
     id="g12">
    <path
       fill="#00aeff"
       d="M6.5 12.5a.5.5 0 0 1 0-1h7a.5.5 0 0 1 0 1h-7Zm0 2.5a.5.5 0 0 1 0-1h7a.5.5 0 0 1 0 1h-7Z"
       id="path2" />
    <path
       fill="#00aeff"
       fill-rule="evenodd"
       d="M11.185 1H4.5A1.5 1.5 0 0 0 3 2.5v15A1.5 1.5 0 0 0 4.5 19h11a1.5 1.5 0 0 0 1.5-1.5V7.202a1.5 1.5 0 0 0-.395-1.014l-4.314-4.702A1.5 1.5 0 0 0 11.185 1ZM4 2.5a.5.5 0 0 1 .5-.5h6.685a.5.5 0 0 1 .369.162l4.314 4.702a.5.5 0 0 1 .132.338V17.5a.5.5 0 0 1-.5.5h-11a.5.5 0 0 1-.5-.5v-15Z"
       clip-rule="evenodd"
       id="path4"
       style="fill:#81d5e4;fill-opacity:1" />
    <path
       stroke="#00aeff"
       stroke-linecap="round"
       stroke-linejoin="round"
       d="M11.5 2.1v4.7h4.7"
       id="path6" />
    <path
       fill="#00aeff"
       d="M8.134 6.133a1.067 1.067 0 1 0 0-2.133a1.067 1.067 0 0 0 0 2.133Z"
       id="path8" />
    <path
       fill="#00aeff"
       fill-rule="evenodd"
       d="M10.266 8.444c0-1.134-.955-1.955-2.133-1.955S6 7.309 6 8.444v.534a.356.356 0 0 0 .356.355h3.555a.356.356 0 0 0 .355-.355v-.534Z"
       clip-rule="evenodd"
       id="path10" />
    <path
       style="fill:#81d5e4;fill-opacity:1;stroke-width:0.076;stroke:#81d6e4;stroke-opacity:1;stroke-dasharray:none"
       d="M 13.293161,60.632735 C 11.545172,60.208643 10.12615,58.739001 9.7499786,56.963159 9.579281,56.157324 9.579281,7.8426761 9.7499786,7.0368412 10.055179,5.5960405 11.047732,4.3347198 12.372094,3.7046984 c 0.99951,-0.4754838 0.359258,-0.4526295 12.714839,-0.4538669 10.990181,-0.0011 11.300701,0.00282 11.875857,0.1499193 1.121051,0.2867164 1.705442,0.6963233 3.000509,2.1030927 8.530064,9.2657985 13.338352,14.5524875 13.605433,14.9591075 0.182783,0.278279 0.428249,0.777204 0.54548,1.108722 l 0.213148,0.602759 0.02011,17.108868 c 0.02222,18.908306 0.05327,17.660709 -0.466711,18.749852 -0.623613,1.306194 -1.820318,2.275739 -3.214872,2.604621 -0.68236,0.160923 -36.708694,0.156067 -37.372721,-0.005 z m 36.98163,-3.162406 c 0.374792,-0.173524 0.67957,-0.488744 0.837043,-0.865722 0.106113,-0.254028 0.118751,-2.038253 0.118751,-16.764636 V 23.359618 h 0.519043 c 0.66023,0 1.106913,-0.211084 1.429755,-0.675643 0.208381,-0.299853 0.230414,-0.38879 0.230414,-0.930092 0,-0.541689 -0.02179,-0.629468 -0.229391,-0.924222 -0.126165,-0.179127 -0.381039,-0.405747 -0.566387,-0.5036 -0.320784,-0.169354 -0.411769,-0.177913 -1.891245,-0.177913 H 49.168526 L 43.833964,14.334861 38.499403,8.5215735 38.45967,7.3943364 C 38.42245,6.3383891 38.406605,6.2443502 38.209131,5.907386 37.54255,4.7699511 35.840818,4.859373 35.309833,6.0597372 l -0.143751,0.3249701 -10.567509,0.00168 c -10.122845,0.00161 -10.58038,0.00764 -10.873364,0.1432853 -0.374792,0.1735232 -0.67957,0.4887432 -0.837043,0.8657218 C 12.781651,7.6503825 12.769415,10.185735 12.769415,32 c 0,21.814265 0.01224,24.349617 0.118751,24.604607 0.157473,0.376978 0.462251,0.692198 0.837043,0.865722 0.294962,0.136562 0.945798,0.141605 18.274791,0.141605 17.328993,0 17.97983,-0.005 18.274791,-0.141605 z"
       id="path1132"
       transform="scale(0.3125)" />
    <path
       style="fill:#81d5e4;fill-opacity:1;stroke-width:0.076;stroke:#81d6e4;stroke-opacity:1;stroke-dasharray:none"
       d="m 36.51135,23.288119 c -0.58298,-0.141926 -1.038675,-0.548866 -1.186754,-1.059785 -0.05681,-0.196003 -0.07511,-2.712029 -0.05938,-8.165598 l 0.02272,-7.8823053 0.21892,-0.3158796 c 0.260042,-0.3752163 0.861587,-0.7032608 1.289589,-0.7032608 0.385628,0 0.80262,0.179804 1.112463,0.4796871 0.487032,0.4713756 0.475802,0.2874602 0.475802,7.7922556 v 6.791379 h 6.92375 c 7.523486,0 7.116861,-0.02198 7.592652,0.410377 0.540821,0.491448 0.63532,1.465476 0.194965,2.00955 -0.347164,0.428931 -0.559703,0.556718 -1.063033,0.639137 -0.532441,0.08719 -15.164611,0.09137 -15.521691,0.0044 z"
       id="path1134"
       transform="scale(0.3125)" />
    <path
       style="fill:#81d5e4;fill-opacity:1;stroke-width:0.0764636;stroke:#81d6e4;stroke-opacity:1"
       d="m 19.901221,29.709845 c -0.57933,-0.26475 -0.631991,-0.437419 -0.63079,-2.068268 0.0011,-1.546977 0.08118,-2.101647 0.419989,-2.910445 0.605702,-1.445922 1.912866,-2.718977 3.448044,-3.358073 1.023332,-0.426015 1.813447,-0.555792 3.126769,-0.513577 0.746065,0.02398 1.320672,0.08374 1.643967,0.170971 2.512088,0.677805 4.294903,2.467848 4.77254,4.791891 0.08206,0.399297 0.121127,0.999729 0.121127,1.861801 0,1.448995 -0.06032,1.674883 -0.524269,1.963395 L 32,29.820789 26.112306,29.83921 c -5.678145,0.01777 -5.899204,0.01316 -6.211085,-0.129365 z"
       id="path1136"
       transform="scale(0.3125)" />
    <path
       style="fill:#81d5e4;fill-opacity:1;stroke-width:0.0764636"
       d="m 25.501375,19.523041 c -0.558315,-0.106468 -1.250089,-0.462964 -1.659377,-0.855136 -2.04373,-1.958267 -0.97517,-5.350688 1.82209,-5.784698 1.02478,-0.159 2.082281,0.205646 2.85573,0.984709 1.275261,1.284516 1.303274,3.280575 0.06505,4.635385 -0.437772,0.478992 -1.226618,0.910148 -1.89041,1.033231 -0.477498,0.08854 -0.669422,0.08637 -1.193087,-0.01349 z"
       id="path1138"
       transform="scale(0.3125)" />
    <path
       style="fill:#81d5e4;fill-opacity:1;stroke-width:0.0764636;stroke:#81d6e4;stroke-opacity:1"
       d="m 20.265128,39.867522 c -0.33938,-0.136136 -0.688758,-0.45332 -0.852181,-0.773655 -0.217738,-0.426802 -0.179312,-1.148469 0.08141,-1.528971 0.214483,-0.313018 0.569247,-0.570229 0.928681,-0.673313 0.352992,-0.101237 22.800928,-0.101237 23.15392,0 0.360024,0.103254 0.714285,0.360423 0.929835,0.674998 0.137167,0.200182 0.188328,0.391424 0.206401,0.771531 0.02929,0.616027 -0.15311,0.988227 -0.658295,1.343296 l -0.330898,0.23257 -11.635,0.01465 c -7.541797,0.0095 -11.701447,-0.012 -11.823875,-0.06111 z"
       id="path1140"
       transform="scale(0.3125)" />
    <path
       style="fill:#81d5e4;fill-opacity:1;stroke-width:0.0764636;stroke:#81d6e4;stroke-opacity:1"
       d="m 20.403738,47.906356 c -0.361195,-0.109117 -0.674877,-0.33598 -0.886203,-0.640924 -0.163566,-0.236025 -0.211607,-0.403566 -0.230676,-0.804471 -0.02935,-0.617103 0.152757,-0.989006 0.65825,-1.34428 L 20.276017,44.88411 H 32 43.723983 l 0.330908,0.232571 c 0.505192,0.355062 0.687595,0.727263 0.658305,1.343295 -0.01807,0.380107 -0.06923,0.57135 -0.206401,0.771531 -0.21555,0.314575 -0.569811,0.571745 -0.929835,0.674998 -0.316558,0.09079 -22.872687,0.09064 -23.173222,-1.53e-4 z"
       id="path1142"
       transform="scale(0.3125)" />
    <path
       style="fill:#81d5e4;fill-opacity:1;stroke-width:0.0764636"
       d="m 25.193745,19.40334 c -1.276977,-0.456361 -2.1335,-1.44797 -2.327652,-2.694755 -0.336227,-2.159149 1.64203,-4.13687 3.77289,-3.771869 2.360703,0.404371 3.551182,3.064932 2.266924,5.066274 -0.342689,0.534035 -0.771467,0.894938 -1.441018,1.212906 -0.49845,0.236713 -0.669507,0.278272 -1.233274,0.299632 -0.485803,0.01841 -0.753377,-0.01052 -1.03787,-0.112188 z"
       id="path1144"
       transform="scale(0.3125)" />
    <path
       style="fill:#81d5e4;fill-opacity:1;stroke-width:0.076;stroke-dasharray:none;opacity:1;stroke:#81d6e4;stroke-opacity:1"
       d="m 25.193745,19.40334 c -1.244705,-0.444828 -2.046086,-1.334737 -2.300425,-2.554552 -0.474079,-2.273694 1.684191,-4.402913 3.936622,-3.883635 0.955791,0.220349 1.870541,0.959855 2.298043,1.857796 0.478006,1.004018 0.393474,2.219295 -0.220311,3.167311 -0.373081,0.576239 -0.752086,0.897624 -1.44867,1.228431 -0.49215,0.233721 -0.665029,0.275531 -1.227389,0.296837 -0.485803,0.01841 -0.753377,-0.01052 -1.03787,-0.112188 z"
       id="path1146"
       transform="scale(0.3125)" />
    <path
       style="fill:#81d5e4;fill-opacity:1;stroke-width:0.0764636"
       d=""
       id="path1148"
       transform="scale(0.3125)" />
  </g>
</svg>
